<?xml version="1.0" standalone="no"?><!DOCTYPE svg PUBLIC "-//W3C//DTD SVG 1.1//EN" "http://www.w3.org/Graphics/SVG/1.1/DTD/svg11.dtd"><svg t="1615529045426" class="icon" viewBox="0 0 1024 1024" version="1.1" xmlns="http://www.w3.org/2000/svg" p-id="1636" xmlns:xlink="http://www.w3.org/1999/xlink" width="200" height="200"><defs><style type="text/css"></style></defs><path d="M512 1023.366446C229.626475 1023.366446 0.633554 794.373525 0.633554 512 0.633554 229.611741 229.626475 0.633554 512 0.633554S1023.366446 229.611741 1023.366446 512c0 282.373525-228.992921 511.366446-511.366446 511.366446z" fill="#D7D7D8" p-id="1637"></path><path d="M327.576863 342.163338h-107.497899l-31.073611 59.126791v59.642475h138.57151v-118.769266z" fill="#E74A48" p-id="1638"></path><path d="M222.318504 351.917122h27.522762v49.373007h-53.469007l25.946245-49.373007z m39.751827 49.373007v-49.373007h57.682878v49.373007h-57.682878z" fill="#FFFFFF" p-id="1639"></path><path d="M772.552748 456.925007l-50.124431 168.363281H103.004086v-143.315799h537.253756l132.294906-25.047482z" fill="#040000" p-id="1640"></path><path d="M103.608173 496.249554a2.006745 2.006745 0 0 1-3.874993 1.060834l-9.12023-32.930071c-2.534216-9.164432-4.965295-14.586475-8.516144-17.489036-3.462446-2.828892-8.295137-3.432978-15.691511-2.961497-1.105036 0.073669-2.062734-0.780892-2.121669-1.885928-0.058935-1.105036 0.780892-2.062734 1.885928-2.121669 8.413007-0.530417 14.056058 0.265209 18.461468 3.860259 4.302273 3.506647 7.101698 9.547511 9.85692 19.537036l9.120231 32.930072z" fill="#323333" p-id="1641"></path><path d="M66.302158 423.43505c3.978129 0 7.219568 8.280403 7.219569 18.490936 0 10.210532-3.226705 18.490935-7.219569 18.490935-3.978129 0-7.219568-8.280403-7.219568-18.490935 0-10.210532 3.226705-18.490935 7.219568-18.490936z" fill="#F5CF39" p-id="1642"></path><path d="M964.91741 528.943885H413.592863l-54.883453-213.109871h508.71436l78.501755 95.475108z" fill="#A42124" p-id="1643"></path><path d="M964.91741 528.943885h-20.627338l-18.888748-111.976979-61.513669-72.490359H366.105784l-59.053122-36.466187h-34.919137v-18.432h107.73364l54.117295 26.255654h433.43931L947.236835 412.546763z" fill="#E74A48" p-id="1644"></path><path d="M795.404892 315.834014h39.781295l44.201439 213.109871h-39.781295l-44.201439-213.109871zM438.846619 315.834014h39.781295l44.201439 213.109871h-39.781295l-44.201439-213.109871zM557.689554 315.834014h39.781295l44.201439 213.109871h-39.781295l-44.201439-213.109871zM676.547223 315.834014h39.781295l44.201439 213.109871h-39.781295l-44.201439-213.109871z" fill="#E74A48" p-id="1645"></path><path d="M736.395971 734.42164c63.090187 0 114.245986-51.170532 114.245986-114.245985 0-63.090187-51.155799-114.260719-114.245986-114.26072-63.090187 0-114.245986 51.170532-114.245985 114.26072-0.014734 63.075453 51.141065 114.245986 114.245985 114.245985z" fill="#323333" p-id="1646"></path><path d="M736.395971 686.816691c36.805065 0 66.641036-29.850705 66.641036-66.641036 0-36.805065-29.850705-66.641036-66.641036-66.641036-36.805065 0-66.641036 29.835971-66.641036 66.641036-0.014734 36.790331 29.821237 66.641036 66.641036 66.641036z" fill="#181818" p-id="1647"></path><path d="M736.395971 677.298647c31.545094 0 57.122993-25.592633 57.122993-57.122992 0-31.545094-25.577899-57.137727-57.122993-57.137727-31.545094 0-57.137727 25.592633-57.137726 57.137727 0 31.53036 25.577899 57.122993 57.137726 57.122992z" fill="#A42124" p-id="1648"></path><path d="M736.395971 644.50118c13.437237 0 24.340259-10.888288 24.340259-24.325525 0-13.437237-10.903022-24.340259-24.340259-24.340259s-24.340259 10.888288-24.340259 24.340259c0 13.422504 10.888288 24.325525 24.340259 24.325525z" fill="#F5CF39" p-id="1649"></path><path d="M267.433439 734.42164c63.090187 0 114.260719-51.170532 114.260719-114.245985 0-63.090187-51.170532-114.260719-114.260719-114.26072-63.075453 0-114.245986 51.170532-114.245986 114.26072 0 63.075453 51.155799 114.245986 114.245986 114.245985z" fill="#323333" p-id="1650"></path><path d="M267.433439 686.816691c36.805065 0 66.65577-29.850705 66.65577-66.641036 0-36.805065-29.850705-66.641036-66.65577-66.641036-36.790331 0-66.641036 29.835971-66.641036 66.641036-0.014734 36.790331 29.835971 66.641036 66.641036 66.641036z" fill="#181818" p-id="1651"></path><path d="M267.433439 677.298647c31.545094 0 57.137727-25.592633 57.137726-57.122992 0-31.545094-25.592633-57.137727-57.137726-57.137727-31.53036 0-57.122993 25.592633-57.122993 57.137727 0 31.53036 25.577899 57.122993 57.122993 57.122992z" fill="#A42124" p-id="1652"></path><path d="M267.433439 644.50118c13.437237 0 24.340259-10.888288 24.340259-24.325525 0-13.437237-10.888288-24.340259-24.340259-24.340259-13.437237 0-24.325525 10.888288-24.325525 24.340259 0 13.422504 10.888288 24.325525 24.325525 24.325525z" fill="#F5CF39" p-id="1653"></path><path d="M337.698993 439.877986H105.405698c-7.661583 0-13.923453 6.306072-13.923453 13.938187v134.460777c0 5.613583 3.374043 10.505209 8.192 12.685813l42.919597-118.990274h209.043338V453.801439c0-7.646849-6.276604-13.923453-13.938187-13.923453z" fill="#A42124" p-id="1654"></path><path d="M65.992748 640.21364l46.057899 0.61882 58.876317-148.251625h193.307626l40.296978 158.756834h14.615943L374.194647 474.281439H131.661353L65.992748 640.21364z" fill="#E74A48" p-id="1655"></path><path d="M579.613468 540.583597h-151.316259c-3.59505 0-6.512345 2.932029-6.512346 6.512345v52.113497c0 3.59505 2.932029 6.512345 6.512346 6.512345H579.628201c3.59505 0 6.512345-2.932029 6.512346-6.512345v-52.113497c0-3.580317-2.932029-6.512345-6.527079-6.512345z" fill="#323333" p-id="1656"></path></svg>